<?xml version="1.0" standalone="no"?>
<!DOCTYPE svg PUBLIC "-//W3C//DTD SVG 20010904//EN"
 "http://www.w3.org/TR/2001/REC-SVG-20010904/DTD/svg10.dtd">
<svg version="1.0" xmlns="http://www.w3.org/2000/svg"
 width="204.000000pt" height="192.000000pt" viewBox="0 0 204.000000 192.000000"
 preserveAspectRatio="xMidYMid meet">

<g transform="translate(0.000000,192.000000) scale(0.100000,-0.100000)"
fill="#000000" stroke="none">
<path d="M869 1766 c-486 -102 -775 -611 -611 -1075 124 -350 446 -567 812
-548 133 7 200 25 325 87 149 73 266 183 343 320 198 352 123 775 -185 1041
-66 57 -229 141 -318 165 -82 22 -282 27 -366 10z m416 -401 l0 -80 -73 -5
c-93 -6 -102 -17 -102 -117 l0 -73 83 0 83 0 -11 -87 -10 -88 -72 -3 -73 -3 0
-219 0 -220 -90 0 -90 0 0 220 0 219 -72 3 -73 3 -3 88 -3 87 76 0 75 0 0 81
c0 108 15 161 59 210 48 54 95 69 206 66 l90 -2 0 -80z"/>
</g>
</svg>
