<?xml version="1.0" standalone="no"?>
<!DOCTYPE svg PUBLIC "-//W3C//DTD SVG 20010904//EN"
 "http://www.w3.org/TR/2001/REC-SVG-20010904/DTD/svg10.dtd">
<svg version="1.0" xmlns="http://www.w3.org/2000/svg"
 width="204.000000pt" height="192.000000pt" viewBox="0 0 204.000000 192.000000"
 preserveAspectRatio="xMidYMid meet">

<g transform="translate(0.000000,192.000000) scale(0.100000,-0.100000)"
fill="#000000" stroke="none">
<path d="M559 1736 c-114 -32 -231 -122 -279 -216 -49 -96 -51 -119 -48 -586
3 -434 3 -440 26 -497 45 -110 149 -207 274 -256 38 -14 100 -16 488 -16 388
0 450 2 488 16 125 49 229 146 274 256 23 57 23 63 26 497 3 467 1 490 -48
586 -49 96 -166 185 -284 216 -70 19 -848 18 -917 0z m916 -281 c111 -54 36
-219 -78 -171 -41 17 -57 42 -57 88 1 39 16 62 56 83 36 19 39 19 79 0z m-313
-145 c155 -58 260 -237 237 -404 -29 -213 -237 -366 -441 -326 -90 17 -159 53
-211 109 -145 155 -147 373 -4 528 105 114 267 150 419 93z"/>
<path d="M947 1196 c-214 -60 -241 -370 -40 -467 98 -46 236 -21 300 55 85
101 85 242 -1 343 -54 64 -168 95 -259 69z"/>
</g>
</svg>
