<?xml version="1.0" standalone="no"?>
<!DOCTYPE svg PUBLIC "-//W3C//DTD SVG 20010904//EN"
 "http://www.w3.org/TR/2001/REC-SVG-20010904/DTD/svg10.dtd">
<svg version="1.0" xmlns="http://www.w3.org/2000/svg"
 width="225.000000pt" height="225.000000pt" viewBox="0 0 225.000000 225.000000"
 preserveAspectRatio="xMidYMid meet">

<g transform="translate(0.000000,225.000000) scale(0.100000,-0.100000)"
fill="#000000" stroke="none">
<path d="M987 2234 c-522 -71 -903 -458 -973 -986 -47 -358 118 -761 405 -988
183 -145 367 -220 612 -250 181 -21 451 34 619 127 333 185 536 484 585 864
22 170 4 323 -62 509 -114 323 -396 589 -728 685 -86 25 -281 56 -334 54 -14
-1 -70 -7 -124 -15z m398 -78 c238 -61 458 -210 597 -402 233 -325 271 -736
100 -1089 -293 -602 -1040 -789 -1586 -397 -192 138 -339 356 -402 597 -24 88
-27 119 -27 260 0 141 3 172 27 260 48 185 144 353 275 485 166 167 375 274
606 310 103 16 297 4 410 -24z"/>
<path d="M1045 2133 c-78 -7 -211 -36 -271 -59 -282 -106 -511 -342 -608 -629
-34 -99 -47 -190 -48 -320 0 -184 34 -321 120 -483 132 -250 387 -441 677
-507 107 -25 316 -23 430 4 405 95 693 395 776 806 17 87 14 295 -6 385 -80
356 -314 624 -656 749 -110 40 -302 65 -414 54z m230 -28 c254 -41 447 -152
630 -365 135 -156 226 -443 212 -664 -23 -344 -201 -635 -494 -807 -390 -229
-878 -166 -1198 156 -156 156 -245 331 -280 550 -24 145 -17 264 25 415 132
483 614 795 1105 715z"/>
<path d="M1117 2053 c-12 -11 -8 -78 5 -91 7 -7 24 -12 38 -12 36 0 50 17 50
62 0 52 -28 53 -32 1 -4 -55 -32 -52 -36 5 -3 40 -10 50 -25 35z"/>
<path d="M985 2030 c-35 -38 6 -99 57 -87 13 4 30 18 37 33 26 58 -51 102 -94
54z m64 -14 c17 -20 2 -48 -23 -44 -24 3 -34 37 -14 49 18 12 24 11 37 -5z"/>
<path d="M916 2031 c-6 -9 -3 -34 11 -83 2 -10 10 -18 17 -18 11 0 12 10 4 48
-11 51 -22 70 -32 53z"/>
<path d="M1243 2023 c-4 -11 3 -24 23 -40 l29 -25 -32 7 c-41 8 -45 -11 -6
-26 56 -21 83 20 37 59 l-29 24 27 -6 c29 -7 48 8 22 18 -29 11 -65 6 -71 -11z"/>
<path d="M829 2006 c-45 -22 -29 -107 20 -106 20 1 51 24 51 39 0 14 -6 14
-30 -1 -16 -10 -23 -10 -36 4 -14 14 -15 20 -4 32 7 9 21 16 31 16 11 0 19 4
19 9 0 16 -26 20 -51 7z"/>
<path d="M1396 1965 c-19 -49 -12 -81 10 -50 9 12 20 16 38 11 16 -4 26 -2 26
5 0 6 -9 13 -20 16 -11 3 -20 11 -20 19 0 10 6 11 26 4 32 -12 34 -12 34 1 0
8 -58 39 -73 39 -2 0 -12 -20 -21 -45z"/>
<path d="M730 1966 c0 -2 9 -25 20 -50 13 -32 24 -44 34 -40 13 5 12 12 -7 50
-11 24 -27 44 -34 44 -7 0 -13 -2 -13 -4z"/>
<path d="M1500 1931 c-15 -29 -12 -56 8 -74 37 -33 92 -11 92 37 0 49 -78 77
-100 37z m70 -37 c0 -19 -5 -24 -25 -24 -20 0 -25 5 -25 24 0 13 6 26 13 29
22 7 37 -4 37 -29z"/>
<path d="M643 1922 c-15 -9 31 -92 50 -92 17 1 63 37 55 45 -3 4 -16 1 -28 -5
-12 -6 -23 -10 -24 -8 -1 2 -11 17 -22 35 -12 20 -24 29 -31 25z"/>
<path d="M571 1872 l-32 -27 26 -37 c30 -44 37 -45 76 -17 36 25 28 47 -8 24
-32 -21 -45 -9 -15 14 29 21 17 36 -14 17 -32 -22 -37 -8 -7 18 15 13 22 26
16 29 -5 3 -24 -6 -42 -21z"/>
<path d="M955 1884 c-33 -8 -67 -17 -75 -21 -8 -3 -19 -7 -25 -9 -70 -18 -204
-104 -279 -179 -61 -61 -133 -165 -160 -229 -18 -44 -19 -46 -8 -46 4 0 20 26
36 59 86 178 254 324 445 388 60 20 103 26 204 30 154 7 228 -8 362 -72 148
-70 272 -191 345 -336 31 -60 69 -103 52 -58 -17 43 -64 123 -105 178 -112
150 -262 248 -457 297 -71 17 -258 16 -335 -2z"/>
<path d="M1625 1855 c-14 -13 -25 -29 -25 -35 0 -16 47 -60 65 -60 21 0 55 36
55 59 0 19 -43 61 -62 61 -5 0 -20 -11 -33 -25z m60 -35 c0 -18 -6 -26 -21
-28 -26 -4 -40 24 -23 45 18 21 44 11 44 -17z"/>
<path d="M1251 1799 c0 -9 -10 -24 -20 -33 -22 -20 -33 -54 -20 -62 5 -3 9 0
9 6 0 6 9 24 21 39 12 16 19 37 16 47 -3 14 -5 15 -6 3z"/>
<path d="M462 1777 l-21 -22 34 -40 35 -40 25 28 c27 30 32 66 13 85 -19 19
-63 14 -86 -11z m66 -30 c-4 -29 -25 -32 -38 -6 -9 17 -9 23 1 29 19 13 40 0
37 -23z"/>
<path d="M1727 1763 l-39 -35 23 -24 c24 -26 67 -32 87 -12 19 19 14 63 -10
86 l-23 21 -38 -36z m57 -20 c4 -9 0 -23 -9 -32 -13 -14 -17 -14 -32 2 -16 16
-16 18 2 32 26 19 32 19 39 -2z"/>
<path d="M1280 1762 c0 -10 -11 -29 -25 -42 -19 -18 -25 -33 -24 -64 1 -33 3
-36 8 -16 3 14 18 42 34 61 28 37 34 63 17 74 -5 3 -10 -2 -10 -13z"/>
<path d="M1418 1643 c-14 -13 -20 -14 -33 -3 -12 10 -23 10 -59 -4 -25 -9 -50
-23 -56 -31 -6 -8 -17 -12 -24 -9 -18 7 -112 -80 -124 -115 -8 -21 -7 -36 3
-54 12 -23 11 -26 -3 -30 -10 -3 -4 -5 11 -6 15 0 30 -7 33 -15 7 -19 145 -28
249 -17 44 4 67 9 50 11 -30 2 -30 2 -5 10 14 4 48 9 75 10 49 3 49 3 15 11
-27 6 -19 7 34 5 38 -1 64 0 58 2 -7 2 -12 7 -12 12 0 5 26 7 58 5 31 -2 46
-2 32 1 -49 10 -56 17 -25 24 l30 8 -32 1 c-36 1 -42 11 -18 31 15 13 20 56 9
84 -9 24 -71 58 -92 52 -12 -4 -26 1 -37 14 -24 26 -112 28 -137 3z m134 -27
c10 -11 18 -32 18 -45 0 -20 2 -21 15 -11 8 7 15 19 15 26 0 23 27 16 49 -12
22 -28 28 -50 11 -39 -5 3 -10 2 -10 -4 0 -5 5 -13 11 -17 7 -4 8 -9 0 -17 -7
-7 -16 -6 -28 4 -16 13 -17 12 -5 -3 17 -21 -2 -35 -24 -17 -12 9 -13 9 -9 -2
9 -23 -58 -44 -87 -28 -21 11 -22 11 -9 -4 12 -15 11 -17 -7 -17 -11 0 -25 7
-32 15 -7 8 -17 15 -23 15 -5 0 -2 -9 8 -20 20 -23 14 -26 -18 -8 -20 10 -21
10 -8 -5 19 -23 -1 -21 -32 3 -21 17 -26 17 -31 5 -3 -8 0 -14 6 -12 6 1 13
-4 15 -10 3 -7 -3 -13 -11 -13 -9 0 -19 6 -22 14 -4 10 -20 15 -52 14 -26 -1
-58 2 -72 7 -25 8 -25 8 -6 -14 17 -19 17 -21 3 -21 -10 0 -17 5 -17 10 0 5
-6 9 -12 7 -8 -1 -12 6 -11 18 1 11 0 14 -3 8 -8 -18 -27 -16 -21 1 3 7 1 18
-5 24 -8 8 -7 16 2 27 12 15 15 14 26 -7 8 -13 13 -17 14 -10 0 7 -4 22 -10
32 -10 18 3 33 57 64 16 9 53 -50 53 -83 0 -52 11 -10 14 55 2 50 7 69 17 69
8 0 20 4 26 8 27 17 77 -34 85 -84 3 -23 4 -22 21 10 11 23 15 45 11 67 l-6
33 38 -6 c22 -3 47 -15 56 -27z m-106 -18 l5 -33 -19 30 c-13 20 -15 32 -8 37
14 9 17 6 22 -34z m141 -10 c-3 -8 -6 -5 -6 6 -1 11 2 17 5 13 3 -3 4 -12 1
-19z m-291 -13 c11 -27 -2 -37 -14 -11 -7 16 -8 26 -1 26 5 0 12 -7 15 -15z
m-21 -164 c10 -17 -12 -21 -25 -6 -10 12 -10 15 3 15 9 0 18 -4 22 -9z m50 -1
c3 -5 -1 -10 -9 -10 -8 0 -18 5 -21 10 -3 6 1 10 9 10 8 0 18 -4 21 -10z"/>
<path d="M1515 1565 c0 -24 3 -39 7 -32 10 16 10 64 1 70 -5 3 -8 -15 -8 -38z"/>
<path d="M1546 1475 c4 -8 11 -15 16 -15 6 0 5 6 -2 15 -7 8 -14 15 -16 15 -2
0 -1 -7 2 -15z"/>
<path d="M370 1635 c-16 -19 -6 -45 19 -45 25 0 34 26 15 45 -19 18 -19 18
-34 0z"/>
<path d="M1843 1643 c-7 -3 -13 -16 -13 -29 0 -19 5 -24 25 -24 20 0 25 5 25
24 0 25 -15 36 -37 29z"/>
<path d="M297 1513 c-13 -12 -7 -41 10 -47 21 -8 48 17 40 38 -6 16 -38 22
-50 9z"/>
<path d="M1896 1504 c-9 -22 17 -49 39 -40 10 3 15 15 13 28 -4 29 -42 37 -52
12z"/>
<path d="M991 1358 c-6 -73 -15 -164 -18 -201 -6 -73 -30 -117 -63 -117 -27 0
-30 19 -18 130 6 55 7 104 4 108 -4 4 -21 -1 -37 -10 -20 -12 -36 -15 -52 -9
-27 10 -73 -2 -100 -26 -56 -50 -77 -185 -36 -237 34 -44 104 -33 133 22 9 15
15 21 16 15 0 -20 38 -53 59 -53 11 0 33 12 50 26 26 22 32 23 37 10 4 -10 18
-16 35 -16 27 0 29 2 29 43 0 86 26 115 50 57 37 -89 95 -107 148 -46 l30 34
21 -22 c17 -17 33 -21 81 -21 51 1 64 5 99 33 39 31 40 31 43 9 2 -17 10 -22
32 -22 28 0 29 2 33 55 5 71 18 117 43 158 22 36 56 45 47 12 -7 -27 24 -27
48 0 26 28 10 74 -26 78 -25 3 -48 -14 -84 -63 -14 -19 -14 -19 -15 11 0 32
-17 44 -51 37 -13 -3 -17 -23 -22 -98 -7 -105 -17 -128 -63 -150 -49 -23 -89
-19 -113 11 -12 15 -21 30 -21 34 0 3 22 17 50 29 82 37 121 99 84 135 -28 28
-61 30 -111 5 -63 -31 -96 -92 -90 -161 3 -39 0 -51 -18 -68 -29 -28 -53 -25
-67 8 -7 15 -20 37 -31 48 -18 21 -18 23 0 60 14 31 24 39 45 39 35 1 42 9 34
40 -5 21 -12 26 -34 23 -26 -3 -41 -24 -85 -125 -9 -21 -47 -33 -47 -15 0 4 7
71 15 149 8 79 12 150 9 158 -4 8 -18 15 -34 15 l-27 0 -12 -132z m407 -77 c2
-14 -8 -33 -31 -56 -54 -54 -73 -42 -43 29 23 55 68 71 74 27z m-578 -66 c10
-12 9 -29 -5 -88 -18 -76 -37 -107 -65 -107 -22 0 -30 20 -30 76 0 94 61 166
100 119z"/>
<path d="M1917 1394 c-3 -3 -3 -12 -1 -19 7 -18 -23 -140 -46 -185 -14 -27
-27 -40 -41 -40 -20 0 -20 3 -13 115 l7 115 -35 0 -35 0 -6 -110 c-3 -67 -2
-123 5 -140 20 -58 86 -46 128 23 l20 32 0 -27 c0 -16 6 -28 13 -28 6 0 -4
-10 -23 -21 -106 -63 -159 -159 -113 -204 26 -26 91 -14 125 24 28 31 58 115
58 162 0 20 11 36 43 61 75 59 89 93 15 39 -52 -38 -53 -36 -41 89 11 109 8
120 -26 120 -15 0 -30 -3 -34 -6z m-27 -335 c0 -64 -52 -148 -84 -136 -29 11
-18 55 25 102 41 45 59 55 59 34z"/>
<path d="M365 1352 c-61 -29 -121 -86 -149 -141 -9 -16 -19 -55 -22 -87 l-7
-58 44 26 c43 25 44 28 44 75 0 38 7 59 28 91 25 35 54 59 62 50 1 -2 -18
-115 -42 -251 -24 -137 -42 -251 -40 -254 9 -9 189 17 226 33 50 21 88 60 107
111 29 76 3 164 -56 186 l-28 11 30 37 c20 25 32 53 35 82 5 38 1 48 -24 77
-26 30 -37 34 -89 37 -49 3 -69 -1 -119 -25z m135 -22 c44 -23 32 -123 -20
-160 -39 -28 -53 -26 -46 8 3 15 11 57 17 95 11 68 16 74 49 57z m7 -252 c45
-42 26 -135 -37 -185 -18 -14 -80 -37 -85 -31 -2 2 2 44 10 93 24 149 23 145
58 145 18 0 40 -9 54 -22z"/>
<path d="M1108 1373 c7 -3 16 -2 19 1 4 3 -2 6 -13 5 -11 0 -14 -3 -6 -6z"/>
<path d="M1863 1335 c0 -22 2 -30 4 -17 2 12 2 30 0 40 -3 9 -5 -1 -4 -23z"/>
<path d="M1530 1023 c-14 -2 -128 -24 -255 -48 -346 -66 -412 -76 -507 -78
-96 -1 -100 -5 -73 -57 14 -28 62 -50 108 -50 41 0 184 36 366 92 258 79 400
115 489 124 47 4 69 10 60 15 -13 9 -140 10 -188 2z"/>
<path d="M1986 968 c-14 -24 -48 -92 -76 -153 -28 -60 -66 -131 -83 -157 l-32
-48 -60 -1 c-33 0 -69 -5 -80 -10 -16 -7 -14 -8 10 -4 l30 6 -40 -35 c-35 -30
-45 -34 -80 -30 -36 4 -37 3 -15 -7 l25 -11 -37 -19 c-20 -10 -40 -24 -43 -29
-4 -7 -25 -9 -53 -5 -43 4 -43 2 -3 -11 9 -3 0 -12 -23 -24 -21 -10 -43 -17
-49 -15 -7 2 -25 6 -42 9 l-30 6 25 -15 c22 -13 23 -14 5 -15 -11 0 -31 -6
-45 -13 -21 -11 -32 -11 -65 0 -35 11 -38 11 -21 -1 17 -14 16 -15 -17 -21
-24 -5 -45 -1 -68 11 -31 15 -33 15 -20 1 12 -15 10 -17 -25 -17 -50 0 -74
-14 -56 -32 19 -19 15 -23 -24 -25 -20 -1 -43 -8 -53 -17 -9 -8 -32 -16 -51
-18 -31 -3 -27 -5 36 -20 49 -12 82 -14 108 -8 34 7 36 7 30 -12 -6 -19 -3
-20 32 -15 22 3 48 8 59 13 18 6 17 4 -5 -21 l-25 -29 35 24 c19 14 45 23 57
22 13 -2 37 3 53 12 35 17 36 15 14 -22 -15 -25 -14 -24 12 5 18 19 43 34 67
38 20 4 40 11 43 16 10 16 26 9 20 -8 -3 -10 4 -6 17 10 12 15 29 27 37 27 8
0 30 9 48 20 40 24 43 25 37 3 -3 -10 3 -2 12 17 11 22 24 34 34 32 9 -2 30 9
48 23 27 24 31 25 32 8 0 -10 8 -1 18 22 12 26 19 35 23 25 4 -11 14 -6 41 21
l37 37 1 -27 c0 -23 1 -24 9 -6 5 11 9 31 9 45 1 14 17 59 37 100 20 41 53
120 75 174 22 55 53 123 69 151 34 60 35 65 15 65 -8 0 -25 -19 -39 -42z
m-206 -377 c0 -5 -18 -17 -40 -27 -21 -10 -37 -21 -35 -25 3 -4 -2 -10 -11
-13 -10 -4 -13 -2 -8 6 5 7 0 9 -14 6 -12 -4 -22 -3 -22 1 0 10 60 43 94 52
17 4 32 7 34 8 1 1 2 -3 2 -8z m36 -15 c-6 -33 -30 -78 -55 -100 -21 -19 -21
-19 -21 12 0 17 5 34 11 38 8 4 9 -1 5 -17 -3 -13 3 -4 14 21 32 67 54 90 46
46z m-108 -83 c-7 -16 -20 -40 -31 -56 -31 -45 -84 -64 -58 -20 8 14 10 14 11
3 0 -8 10 1 21 20 20 32 58 80 66 80 1 0 -3 -12 -9 -27z m-33 6 c-3 -4 -33
-14 -66 -21 -43 -9 -55 -14 -42 -19 17 -7 16 -8 -2 -8 -11 0 -26 3 -34 8 -11
7 -6 13 18 26 18 9 39 14 47 11 8 -3 14 -1 14 3 0 5 16 9 35 9 19 0 33 -4 30
-9z m-89 -86 c-9 -16 -23 -38 -33 -49 -22 -26 -73 -60 -73 -48 1 15 28 59 37
59 4 0 24 15 43 33 42 39 45 40 26 5z m-47 7 c-9 -5 -42 -13 -74 -16 -45 -6
-56 -4 -50 5 4 7 16 11 26 8 11 -3 17 -1 13 4 -3 5 19 9 48 9 38 -1 48 -3 37
-10z m-189 -42 c0 -10 2 -10 9 0 5 9 17 11 35 6 52 -13 38 -25 -28 -23 -63 2
-86 12 -48 22 29 8 32 7 32 -5z m108 -39 c-19 -26 -83 -69 -103 -69 -11 0 -4
19 16 41 l20 24 -12 -25 c-10 -20 -3 -16 36 18 56 50 75 54 43 11z m-310 -9
c23 -10 42 -22 42 -25 0 -8 -68 5 -110 21 -31 13 -33 12 -16 -1 23 -18 14 -20
-16 -4 -17 9 -18 13 -7 20 22 14 61 10 107 -11z m117 10 c4 -6 10 -8 14 -6 4
3 13 1 21 -5 10 -6 0 -9 -32 -9 -27 0 -48 4 -48 10 0 5 -6 7 -14 4 -8 -3 -17
-1 -21 5 -4 7 8 11 34 11 22 0 43 -5 46 -10z m82 4 c-3 -3 -12 -4 -19 -1 -8 3
-5 6 6 6 11 1 17 -2 13 -5z m-34 -63 c-36 -33 -90 -57 -101 -46 -2 1 7 13 20
27 13 13 20 19 16 14 -19 -24 -5 -27 20 -4 15 14 36 30 47 36 40 22 39 10 -2
-27z m-94 3 c-21 -25 -88 -55 -116 -52 l-25 3 23 20 c18 15 20 15 10 3 -7 -10
-9 -18 -3 -18 15 0 33 26 24 35 -4 5 -1 5 5 1 7 -4 25 0 40 8 39 21 60 21 42
0z m-159 -4 c38 -1 42 -3 22 -11 -13 -5 -29 -6 -34 -2 -7 3 -8 1 -4 -5 5 -9
-9 -12 -48 -12 -31 0 -56 4 -56 10 0 15 33 30 55 25 11 -3 40 -5 65 -5z"/>
<path d="M1669 453 c-13 -16 -12 -17 4 -4 16 13 21 21 13 21 -2 0 -10 -8 -17
-17z"/>
<path d="M1506 354 c-4 -9 -4 -19 -1 -22 2 -3 7 3 11 12 4 9 4 19 1 22 -2 3
-7 -3 -11 -12z"/>
<path d="M1155 260 c-3 -6 1 -7 9 -4 18 7 21 14 7 14 -6 0 -13 -4 -16 -10z"/>
<path d="M965 270 c-8 -13 5 -13 25 0 13 8 13 10 -2 10 -9 0 -20 -4 -23 -10z"/>
<path d="M1245 840 c-4 -6 -4 -23 0 -39 4 -19 1 -32 -10 -41 -39 -32 1 -65 62
-51 21 5 32 9 26 10 -9 1 -10 8 -3 26 5 14 6 25 1 25 -5 0 -11 -6 -14 -12 -4
-10 -7 -10 -18 0 -11 10 -11 16 -1 32 21 34 15 60 -12 60 -14 0 -28 -5 -31
-10z m40 -20 c0 -7 -6 -15 -12 -17 -8 -3 -13 4 -13 17 0 13 5 20 13 18 6 -3
12 -11 12 -18z m5 -92 c0 -5 -11 -8 -25 -8 -26 0 -33 18 -13 38 9 9 14 7 24
-6 8 -9 14 -20 14 -24z"/>
<path d="M1392 828 c-7 -7 -12 -33 -12 -60 0 -37 4 -50 19 -58 25 -13 27 -13
45 6 9 8 13 20 10 25 -3 6 -11 3 -18 -7 -20 -26 -36 -8 -36 41 0 49 16 67 36
40 8 -10 17 -16 20 -12 10 10 -16 37 -35 37 -9 0 -22 -5 -29 -12z"/>
<path d="M1488 775 c-8 -36 -11 -65 -6 -65 5 0 11 7 14 15 9 22 29 18 48 -7
16 -23 16 -23 10 12 -10 51 -29 103 -40 107 -6 2 -17 -26 -26 -62z m36 -17
c-9 -14 -23 2 -17 18 4 12 8 13 14 3 4 -7 5 -17 3 -21z"/>
<path d="M1572 783 c1 -62 17 -112 18 -58 l1 30 20 -24 c25 -30 37 -20 15 14
-15 23 -15 28 -1 55 17 34 18 40 6 40 -5 0 -13 -9 -16 -20 -3 -11 -11 -20 -16
-20 -5 0 -9 9 -9 20 0 11 -4 20 -10 20 -5 0 -9 -26 -8 -57z"/>
<path d="M1672 773 c3 -66 4 -68 31 -71 15 -2 27 1 27 7 0 6 -9 11 -20 11 -15
0 -20 7 -20 25 0 17 6 25 18 25 16 1 16 1 0 11 -26 15 -23 47 5 52 16 3 13 5
-11 6 l-33 1 3 -67z"/>
<path d="M553 741 c-91 -42 -129 -172 -74 -253 40 -58 85 -83 151 -83 189 0
248 247 80 336 -44 24 -104 24 -157 0z m136 -65 c6 -7 9 -21 5 -30 -4 -12 0
-16 15 -16 12 0 21 -4 21 -9 0 -5 -15 -9 -32 -8 -26 2 -34 7 -36 25 -2 12 -7
20 -12 17 -4 -3 -6 -14 -3 -25 4 -16 0 -20 -22 -20 -20 0 -26 4 -21 15 3 8 1
15 -4 15 -6 0 -10 -7 -10 -16 0 -10 -7 -14 -22 -12 -17 2 -24 11 -26 31 -3 23
0 27 22 27 14 0 26 -5 26 -12 0 -9 3 -9 12 0 7 7 22 12 35 12 13 0 23 5 23 10
0 14 16 12 29 -4z m-129 -121 c0 -14 -5 -25 -12 -25 -6 0 -3 -7 8 -15 18 -13
17 -14 -18 -15 -44 0 -46 5 -15 38 17 20 18 24 5 19 -18 -6 -32 5 -21 17 3 3
17 6 30 6 18 0 23 -5 23 -25z m80 10 c15 -18 10 -45 -12 -59 -35 -22 -74 27
-48 59 16 19 44 19 60 0z m120 -27 c0 -21 -4 -38 -10 -38 -5 0 -10 14 -10 30
0 35 -10 38 -28 10 -7 -12 -8 -20 -2 -20 5 0 10 -4 10 -10 0 -5 -16 -10 -35
-10 -39 0 -46 14 -15 30 23 12 27 35 5 26 -9 -3 -15 0 -15 9 0 10 13 14 50 13
l50 -1 0 -39z"/>
<path d="M600 540 c0 -11 5 -20 10 -20 6 0 10 9 10 20 0 11 -4 20 -10 20 -5 0
-10 -9 -10 -20z"/>
</g>
</svg>
