<?xml version="1.0" standalone="no"?>
<!DOCTYPE svg PUBLIC "-//W3C//DTD SVG 20010904//EN"
 "http://www.w3.org/TR/2001/REC-SVG-20010904/DTD/svg10.dtd">
<svg version="1.0" xmlns="http://www.w3.org/2000/svg"
 width="225.000000pt" height="225.000000pt" viewBox="0 0 225.000000 225.000000"
 preserveAspectRatio="xMidYMid meet">

<g transform="translate(0.000000,225.000000) scale(0.100000,-0.100000)"
fill="#000000" stroke="none">
<path d="M999 2240 c-264 -30 -502 -149 -687 -345 -421 -442 -412 -1135 20
-1563 208 -207 447 -313 738 -329 222 -12 434 41 636 159 125 74 308 257 382
382 107 184 154 353 156 566 1 200 -31 347 -114 511 -58 118 -115 196 -214
295 -165 165 -346 263 -566 307 -98 20 -256 28 -351 17z m439 -615 c28 -9 64
-27 80 -40 37 -31 61 -31 137 0 33 14 61 25 63 25 12 0 -49 -88 -77 -111 l-34
-28 54 13 c30 7 63 17 73 22 19 7 19 6 -2 -23 -11 -16 -39 -46 -61 -66 -38
-35 -39 -37 -50 -135 -21 -190 -86 -326 -221 -462 -68 -69 -102 -94 -170 -127
-125 -61 -194 -77 -335 -77 -84 0 -139 5 -184 17 -119 34 -263 109 -172 91 48
-10 190 24 264 63 71 38 83 53 42 53 -32 0 -88 23 -123 51 -27 20 -82 95 -82
110 0 4 24 9 53 11 l52 3 -40 18 c-46 21 -110 79 -131 120 -19 36 -34 117 -22
117 5 0 17 -4 26 -9 9 -4 32 -11 50 -14 l32 -7 -36 36 c-68 69 -94 186 -59
270 l15 36 69 -64 c38 -34 95 -78 125 -97 69 -41 202 -88 279 -97 l57 -7 0 59
c0 124 79 222 205 254 46 12 67 11 123 -5z"/>
</g>
</svg>
