<?xml version="1.0" standalone="no"?>
<!DOCTYPE svg PUBLIC "-//W3C//DTD SVG 20010904//EN"
 "http://www.w3.org/TR/2001/REC-SVG-20010904/DTD/svg10.dtd">
<svg version="1.0" xmlns="http://www.w3.org/2000/svg"
 width="225.000000pt" height="225.000000pt" viewBox="0 0 225.000000 225.000000"
 preserveAspectRatio="xMidYMid meet">

<g transform="translate(0.000000,225.000000) scale(0.100000,-0.100000)"
fill="#000000" stroke="none">
<path d="M900 2199 c-430 -93 -761 -427 -850 -860 -28 -133 -24 -347 9 -475
99 -395 412 -706 810 -807 125 -32 387 -32 512 0 400 102 710 412 812 812 32
125 32 387 0 512 -101 398 -412 710 -807 810 -123 32 -359 36 -486 8z m485
-393 c264 -90 439 -320 452 -596 10 -195 -53 -358 -191 -496 -137 -136 -278
-197 -461 -198 -109 -1 -179 13 -266 51 l-55 24 -148 -41 c-137 -37 -150 -39
-171 -26 -41 27 -39 47 18 171 l54 118 -37 81 c-50 107 -64 172 -64 286 1 186
60 326 194 461 142 144 288 202 490 195 82 -2 123 -9 185 -30z"/>
<path d="M1036 1705 c-300 -83 -476 -409 -376 -701 11 -32 34 -81 50 -107 37
-60 37 -81 0 -164 -16 -36 -30 -67 -30 -68 0 -1 44 9 98 23 l99 26 59 -27 c93
-41 187 -60 274 -54 235 15 437 180 495 404 20 75 19 215 -1 284 -56 189 -204
336 -391 384 -70 18 -210 18 -277 0z m-35 -236 c26 -13 69 -104 69 -145 0 -16
-11 -45 -25 -64 -24 -32 -24 -34 -7 -63 28 -49 109 -123 168 -153 l55 -29 35
43 c44 52 76 55 151 12 62 -35 74 -65 49 -116 -30 -65 -112 -95 -200 -75 -138
32 -286 141 -375 278 -83 126 -88 218 -16 290 34 34 62 41 96 22z"/>
</g>
</svg>
